<svg xmlns="http://www.w3.org/2000/svg" xmlns:xlink="http://www.w3.org/1999/xlink" width="32" height="32" viewBox="0 0 32 32"><defs><linearGradient id="a"><stop offset="0" stop-color="#000092"/><stop offset="1" stop-color="#ff00f3"/></linearGradient><linearGradient id="b" x1="4" x2="25" y1="15.5" y2="15.5" gradientUnits="userSpaceOnUse" xlink:href="#a"/></defs><path style="line-height:normal;text-indent:0;text-align:start;text-decoration-line:none;text-decoration-style:solid;text-decoration-color:#000;text-transform:none;block-progression:tb;isolation:auto;mix-blend-mode:normal" fill="url(#b)" fill-rule="evenodd" d="M 16.003906 2 A 0.50004997 0.50004997 0 0 0 15.638672 2.1542969 L 4.1386719 14.154297 A 0.50004997 0.50004997 0 0 0 4.5 15 L 6 15 L 6 28.5 A 0.50005 0.50005 0 0 0 6.5 29 L 25.5 29 A 0.50005 0.50005 0 0 0 26 28.5 L 26 15 L 27.5 15 A 0.50004997 0.50004997 0 0 0 27.861328 14.154297 L 26 12.212891 A 0.50005 0.50005 0 0 0 26 12.201172 L 26 6.5 A 0.50005 0.50005 0 0 0 25.5 6 L 23.5 6 A 0.50005 0.50005 0 0 0 23 6.5 L 23 9.0820312 L 16.361328 2.1542969 A 0.50004997 0.50004997 0 0 0 16.003906 2 z M 16 3.2246094 L 26.326172 14 L 25.535156 14 L 6.5 14 L 5.6738281 14 L 16 3.2246094 z M 24 7 L 25 7 L 25 11.167969 L 23.988281 10.113281 A 0.50005 0.50005 0 0 0 24 10 L 24 7 z M 7 15 L 25 15 L 25 28 L 19 28 L 19 19.5 A 0.50004994 0.50004994 0 0 0 18.5 19 L 13.5 19 A 0.50004994 0.50004994 0 0 0 13 19.5 L 13 28 L 7 28 L 7 15 z M 14 20 L 18 20 L 18 28 L 14 28 L 14 20 z " color="#000" font-family="sans-serif" font-weight="400" overflow="visible"/></svg>